<?xml version="1.0" encoding="UTF-8" standalone="no"?>
<!-- Created with Inkscape (http://www.inkscape.org/) -->

<svg
   xmlns:dc="http://purl.org/dc/elements/1.1/"
   xmlns:cc="http://creativecommons.org/ns#"
   xmlns:rdf="http://www.w3.org/1999/02/22-rdf-syntax-ns#"
   xmlns:svg="http://www.w3.org/2000/svg"
   xmlns="http://www.w3.org/2000/svg"
   xmlns:sodipodi="http://sodipodi.sourceforge.net/DTD/sodipodi-0.dtd"
   xmlns:inkscape="http://www.inkscape.org/namespaces/inkscape"
   width="6.3499999mm"
   height="6.3500299mm"
   viewBox="0 0 6.3499999 6.3500299"
   version="1.1"
   id="svg8"
   inkscape:version="0.92.4 (5da689c313, 2019-01-14)"
   sodipodi:docname="map_marker.svg">
  <defs
     id="defs2" />
  <sodipodi:namedview
     id="base"
     pagecolor="#ffffff"
     bordercolor="#666666"
     borderopacity="1.0"
     inkscape:pageopacity="0.0"
     inkscape:pageshadow="2"
     inkscape:zoom="31.678384"
     inkscape:cx="11.25879"
     inkscape:cy="11.789071"
     inkscape:document-units="mm"
     inkscape:current-layer="g866"
     showgrid="false"
     fit-margin-top="0"
     fit-margin-left="0"
     fit-margin-right="0"
     fit-margin-bottom="0"
     inkscape:window-width="1313"
     inkscape:window-height="1008"
     inkscape:window-x="598"
     inkscape:window-y="0"
     inkscape:window-maximized="0" />
  <metadata
     id="metadata5">
    <rdf:RDF>
      <cc:Work
         rdf:about="">
        <dc:format>image/svg+xml</dc:format>
        <dc:type
           rdf:resource="http://purl.org/dc/dcmitype/StillImage" />
        <dc:title></dc:title>
      </cc:Work>
    </rdf:RDF>
  </metadata>
  <g
     inkscape:label="Layer 1"
     inkscape:groupmode="layer"
     id="layer1"
     transform="translate(-96.988691,-113.90834)">
    <g
       id="g866">
      <path
         sodipodi:nodetypes="sscss"
         style="fill:#ffffff;fill-opacity:0.50196078;stroke-width:0.31745112"
         inkscape:connector-curvature="0"
         d="m 100.15785,113.90934 c -1.228517,0 -2.222147,0.99362 -2.222147,2.22216 0,1.66662 2.222147,4.12687 2.222147,4.12687 0,0 2.22216,-2.46025 2.22216,-4.12687 0,-1.22854 -0.99362,-2.22216 -2.22216,-2.22216 z"
         id="path10-6" />
      <g
         transform="matrix(0.26458333,0,0,0.26458333,96.988691,113.90834)"
         id="g24">
        <path
           inkscape:connector-curvature="0"
           d="m 12,1.5896251 c -3.87,0 -7,3.13 -7,7 0,5.2500039 7,13.0000039 7,13.0000039 0,0 7,-7.75 7,-13.0000039 0,-3.87 -3.13,-7 -7,-7 z m 0,9.5000039 c -1.38,0 -2.5,-1.1200003 -2.5,-2.5000039 0,-1.38 1.12,-2.5 2.5,-2.5 1.38,0 2.5,1.12 2.5,2.5 0,1.3800036 -1.12,2.5000039 -2.5,2.5000039 z"
           id="path10" />
        <path
           style="fill:none"
           inkscape:connector-curvature="0"
           d="M 0,0 H 24 V 24 H 0 Z"
           id="path12" />
      </g>
    </g>
  </g>
</svg>
