<?xml version="1.0" encoding="utf-8"?>
<!-- Generator: Adobe Illustrator 24.0.1, SVG Export Plug-In . SVG Version: 6.00 Build 0)  -->
<svg version="1.1"
	 id="svg3729" inkscape:version="0.92.4 (5da689c313, 2019-01-14)" sodipodi:docname="ribbon.svg" xmlns:cc="http://creativecommons.org/ns#" xmlns:dc="http://purl.org/dc/elements/1.1/" xmlns:inkscape="http://www.inkscape.org/namespaces/inkscape" xmlns:rdf="http://www.w3.org/1999/02/22-rdf-syntax-ns#" xmlns:sodipodi="http://sodipodi.sourceforge.net/DTD/sodipodi-0.dtd" xmlns:svg="http://www.w3.org/2000/svg"
	 xmlns="http://www.w3.org/2000/svg" xmlns:xlink="http://www.w3.org/1999/xlink" x="0px" y="0px" viewBox="0 0 73.2 109.1"
	 style="enable-background:new 0 0 73.2 109.1;" xml:space="preserve">
<style type="text/css">
	.st0{fill:#B86093;fill-opacity:1;}
</style>
<sodipodi:namedview  bordercolor="#666666" borderopacity="1" fit-margin-bottom="0" fit-margin-left="0" fit-margin-right="0" fit-margin-top="0" gridtolerance="10" guidetolerance="10" id="namedview3731" inkscape:current-layer="g3739" inkscape:cx="-38.88644" inkscape:cy="54.960001" inkscape:pageopacity="0" inkscape:pageshadow="2" inkscape:window-height="1017" inkscape:window-maximized="1" inkscape:window-width="1920" inkscape:window-x="-8" inkscape:window-y="-8" inkscape:zoom="2.147016" objecttolerance="10" pagecolor="#ffffff" showgrid="false">
	</sodipodi:namedview>
<g id="g3739" transform="translate(0,-0.82536463)">
	<path id="path3741" inkscape:connector-curvature="0" class="st0" d="M10.2,109.4C9.7,108.7,0.1,95.2,0,94.9
		c-0.1-0.1,0.6-0.8,1.7-1.6c4.7-3.8,8.5-7,14-12.2c3.9-3.7,7.9-7.9,8.1-8.5c0.1-0.3,0-0.5-0.8-1.6c-4.6-5.6-10.3-15.1-13.2-21.7
		c-3.4-7.8-4.7-13.6-4.4-19.9c0.4-8,3.4-14.4,9.5-20.3c1.8-1.7,4.3-3.7,5.7-4.3c5.5-2.8,9.4-3.8,15-4c4.3-0.1,7.6,0.4,11.3,1.7
		c1.9,0.7,5.5,2.4,7.3,3.6c1.8,1.1,4.2,3.3,5.8,5.2c3.8,4.4,5.8,8.4,6.9,14c0.4,1.8,0.5,8.1,0.2,10.2c-0.9,6.5-4,14.7-9.2,23.5
		c-0.8,1.3-3.2,5-5.3,8.3c-2.1,3.2-3.9,5.9-3.9,6c0,0.1,2.1,2.3,4.8,4.9c6.5,6.5,10.8,10.3,16.9,15.2c1.6,1.3,2.8,2.3,2.8,2.4
		c0,0.2-11.5,14.2-11.7,14.2C61,110,52.1,102.3,46.4,97c-1.3-1.2-4.1-3.9-6.1-6c-2.1-2-3.8-3.7-3.8-3.7c-0.1,0-0.7,0.5-1.4,1.2
		c-0.7,0.6-1.8,1.6-2.5,2.2c-0.7,0.6-2.6,2.4-4.3,4c-5.3,5.1-17,15.2-17.5,15.2C10.7,109.9,10.5,109.7,10.2,109.4z M39.5,57.2
		c1.8-2.7,4.9-7.4,6.9-10.4c4-6,4.4-6.6,5.1-8.7c0.8-2.3,1.1-3.8,1.1-6.4c0-2.7-0.3-4.2-1.2-6.5c-0.8-2-1.8-3.5-3.5-5.3
		c-2.2-2.3-4.5-3.6-7.8-4.5C38.7,15,38.2,15,36,15s-2.7,0-4.1,0.4c-3.3,0.9-5.5,2.2-7.8,4.5c-1.7,1.8-2.7,3.3-3.5,5.3
		c-0.9,2.3-1.2,3.7-1.2,6.5c0,2.6,0.3,4.1,1.1,6.4c0.7,2.1,1.1,2.7,5.1,8.7c2,3.1,5.2,7.8,6.9,10.4c2.2,3.3,3.3,4.8,3.5,4.8
		C36.2,62.1,37.3,60.6,39.5,57.2z M34.9,37.2c-2.7-0.6-4.5-2.7-4.6-5.5c-0.1-1.2,0-1.4,0.5-2.5c0.7-1.4,1.4-2.2,2.8-2.9
		c0.9-0.5,1.2-0.5,2.4-0.5c1.2,0,1.5,0.1,2.4,0.5c1.4,0.7,2.2,1.5,2.8,2.9c0.5,1.1,0.6,1.3,0.5,2.5c-0.1,2.2-1.1,3.9-3,4.9
		c-0.7,0.4-2.5,0.9-2.9,0.8C35.9,37.4,35.4,37.3,34.9,37.2z"/>
</g>
</svg>
